<svg width="47" height="41" viewBox="0 0 47 41" fill="none" xmlns="http://www.w3.org/2000/svg">
<g clip-path="url(#clip0_2_2)">
<path d="M12.548 32.36C6.464 32.36 3.116 29.984 3.116 25.808V25.7H8.516V26.024C8.516 27.644 9.524 28.076 12.584 28.076C15.464 28.076 16.148 27.608 16.148 26.528C16.148 25.52 15.608 25.232 13.484 24.944L8.408 24.332C4.808 23.936 2.792 22.316 2.792 19.292C2.792 16.124 5.492 13.604 11.684 13.604C17.588 13.604 20.936 15.836 20.936 20.228V20.336H15.536V20.12C15.536 18.644 14.816 17.888 11.504 17.888C8.804 17.888 8.12 18.356 8.12 19.508C8.12 20.444 8.624 20.84 11 21.128L14.852 21.596C19.676 22.136 21.476 23.756 21.476 26.744C21.476 30.128 18.128 32.36 12.548 32.36ZM33.3028 32H27.0748C27.0748 21.164 33.2668 16.376 37.8028 13.136V12.74H22.5748V7.88H43.4188V12.236C36.7228 18.572 33.3028 22.928 33.3028 32Z" fill="white"/>
</g>
<defs>
<clipPath id="clip0_2_2">
<rect width="47" height="41" fill="white"/>
</clipPath>
</defs>
</svg>
